<svg width="19" height="18" viewBox="0 0 19 18" fill="none" xmlns="http://www.w3.org/2000/svg">
<g clip-path="url(#clip0)">
<path d="M0.5 8C0.5 3.58172 4.08172 0 8.5 0H16.5C17.6046 0 18.5 0.895431 18.5 2V10C18.5 14.4183 14.9183 18 10.5 18H2.5C1.39543 18 0.5 17.1046 0.5 16V8Z" fill="#2A7DE1"/>
<path d="M9.81683 10.6119L8.62914 12.1235L5.10395 8.59834C4.88201 8.3764 4.52218 8.3764 4.30024 8.59834C4.0783 8.82028 4.0783 9.18011 4.30024 9.40205L8.27839 13.3802C8.51931 13.6211 8.91662 13.5974 9.12712 13.3295L9.81683 12.4516V10.6119Z" fill="white" stroke="white" stroke-width="0.5"/>
<path d="M9.81689 12.4515L15.3786 5.37306C15.5725 5.12626 15.5296 4.76899 15.2828 4.57507C15.036 4.38116 14.6787 4.42403 14.4848 4.67083L9.81689 10.6118V12.4515Z" fill="white" stroke="white" stroke-width="0.5"/>
</g>
<defs>
<clipPath id="clip0">
<rect width="18" height="18" fill="white" transform="translate(0.5)"/>
</clipPath>
</defs>
</svg>
